<mxfile host="app.diagrams.net" modified="2021-11-19T08:34:11.467Z" agent="5.0 (Windows NT 10.0; Win64; x64) AppleWebKit/537.36 (KHTML, like Gecko) Chrome/95.0.4638.69 Safari/537.36" etag="E7uhr-OIfO5VtbtZuFNB" version="15.8.2" type="github">
  <diagram id="71bufVhRr8CgdN7LhXOf" name="Page-1">
    <mxGraphModel dx="3384" dy="912" grid="1" gridSize="10" guides="1" tooltips="1" connect="1" arrows="1" fold="1" page="1" pageScale="1" pageWidth="1654" pageHeight="1169" math="0" shadow="0">
      <root>
        <mxCell id="0" />
        <mxCell id="1" parent="0" />
        <mxCell id="aKH_30aaUyIVZ_TFz-0Y-21" style="edgeStyle=orthogonalEdgeStyle;rounded=0;orthogonalLoop=1;jettySize=auto;html=1;exitX=0.5;exitY=1;exitDx=0;exitDy=0;endArrow=ERzeroToMany;endFill=0;fontSize=15;strokeWidth=3;" parent="1" source="aKH_30aaUyIVZ_TFz-0Y-19" target="NeEN_xjupiKiDtHtempg-10" edge="1">
          <mxGeometry relative="1" as="geometry">
            <mxPoint x="-1400" y="505" as="targetPoint" />
          </mxGeometry>
        </mxCell>
        <mxCell id="8QxSBLE3iREuMqpuram0-7" value="" style="edgeStyle=orthogonalEdgeStyle;rounded=0;orthogonalLoop=1;jettySize=auto;html=1;endArrow=ERone;endFill=0;strokeWidth=3;startArrow=none;startFill=0;" parent="1" source="8QxSBLE3iREuMqpuram0-6" edge="1">
          <mxGeometry relative="1" as="geometry">
            <mxPoint x="-1015" y="720" as="targetPoint" />
            <Array as="points">
              <mxPoint x="-1015" y="720" />
              <mxPoint x="-1015" y="720" />
            </Array>
          </mxGeometry>
        </mxCell>
        <mxCell id="8QxSBLE3iREuMqpuram0-8" value="" style="edgeStyle=orthogonalEdgeStyle;rounded=0;orthogonalLoop=1;jettySize=auto;html=1;endArrow=ERoneToMany;endFill=0;strokeWidth=3;entryX=0.5;entryY=0;entryDx=0;entryDy=0;" parent="1" source="8QxSBLE3iREuMqpuram0-6" target="NeEN_xjupiKiDtHtempg-23" edge="1">
          <mxGeometry relative="1" as="geometry">
            <mxPoint x="-1015" y="850" as="targetPoint" />
          </mxGeometry>
        </mxCell>
        <mxCell id="8QxSBLE3iREuMqpuram0-6" value="종속" style="rhombus;whiteSpace=wrap;html=1;" parent="1" vertex="1">
          <mxGeometry x="-1055" y="780" width="80" height="80" as="geometry" />
        </mxCell>
        <mxCell id="NeEN_xjupiKiDtHtempg-4" value="User" style="swimlane;fontStyle=0;childLayout=stackLayout;horizontal=1;startSize=30;horizontalStack=0;resizeParent=1;resizeParentMax=0;resizeLast=0;collapsible=1;marginBottom=0;" vertex="1" parent="1">
          <mxGeometry x="-1100" y="110" width="170" height="150" as="geometry" />
        </mxCell>
        <mxCell id="NeEN_xjupiKiDtHtempg-5" value="id : number" style="text;strokeColor=none;fillColor=none;align=left;verticalAlign=middle;spacingLeft=4;spacingRight=4;overflow=hidden;points=[[0,0.5],[1,0.5]];portConstraint=eastwest;rotatable=0;" vertex="1" parent="NeEN_xjupiKiDtHtempg-4">
          <mxGeometry y="30" width="170" height="30" as="geometry" />
        </mxCell>
        <mxCell id="NeEN_xjupiKiDtHtempg-6" value="email : string" style="text;strokeColor=none;fillColor=none;align=left;verticalAlign=middle;spacingLeft=4;spacingRight=4;overflow=hidden;points=[[0,0.5],[1,0.5]];portConstraint=eastwest;rotatable=0;" vertex="1" parent="NeEN_xjupiKiDtHtempg-4">
          <mxGeometry y="60" width="170" height="30" as="geometry" />
        </mxCell>
        <mxCell id="NeEN_xjupiKiDtHtempg-9" value="name : string" style="text;strokeColor=none;fillColor=none;align=left;verticalAlign=middle;spacingLeft=4;spacingRight=4;overflow=hidden;points=[[0,0.5],[1,0.5]];portConstraint=eastwest;rotatable=0;" vertex="1" parent="NeEN_xjupiKiDtHtempg-4">
          <mxGeometry y="90" width="170" height="30" as="geometry" />
        </mxCell>
        <mxCell id="NeEN_xjupiKiDtHtempg-8" value="password : string" style="text;strokeColor=none;fillColor=none;align=left;verticalAlign=middle;spacingLeft=4;spacingRight=4;overflow=hidden;points=[[0,0.5],[1,0.5]];portConstraint=eastwest;rotatable=0;" vertex="1" parent="NeEN_xjupiKiDtHtempg-4">
          <mxGeometry y="120" width="170" height="30" as="geometry" />
        </mxCell>
        <mxCell id="NeEN_xjupiKiDtHtempg-10" value="story" style="swimlane;fontStyle=0;childLayout=stackLayout;horizontal=1;startSize=30;horizontalStack=0;resizeParent=1;resizeParentMax=0;resizeLast=0;collapsible=1;marginBottom=0;" vertex="1" parent="1">
          <mxGeometry x="-1100" y="510" width="170" height="210" as="geometry" />
        </mxCell>
        <mxCell id="NeEN_xjupiKiDtHtempg-11" value="id : number" style="text;strokeColor=none;fillColor=none;align=left;verticalAlign=middle;spacingLeft=4;spacingRight=4;overflow=hidden;points=[[0,0.5],[1,0.5]];portConstraint=eastwest;rotatable=0;" vertex="1" parent="NeEN_xjupiKiDtHtempg-10">
          <mxGeometry y="30" width="170" height="30" as="geometry" />
        </mxCell>
        <mxCell id="NeEN_xjupiKiDtHtempg-12" value="address : string" style="text;strokeColor=none;fillColor=none;align=left;verticalAlign=middle;spacingLeft=4;spacingRight=4;overflow=hidden;points=[[0,0.5],[1,0.5]];portConstraint=eastwest;rotatable=0;" vertex="1" parent="NeEN_xjupiKiDtHtempg-10">
          <mxGeometry y="60" width="170" height="30" as="geometry" />
        </mxCell>
        <mxCell id="NeEN_xjupiKiDtHtempg-13" value="waytogo : text" style="text;strokeColor=none;fillColor=none;align=left;verticalAlign=middle;spacingLeft=4;spacingRight=4;overflow=hidden;points=[[0,0.5],[1,0.5]];portConstraint=eastwest;rotatable=0;" vertex="1" parent="NeEN_xjupiKiDtHtempg-10">
          <mxGeometry y="90" width="170" height="30" as="geometry" />
        </mxCell>
        <mxCell id="NeEN_xjupiKiDtHtempg-14" value="knowhow : text" style="text;strokeColor=none;fillColor=none;align=left;verticalAlign=middle;spacingLeft=4;spacingRight=4;overflow=hidden;points=[[0,0.5],[1,0.5]];portConstraint=eastwest;rotatable=0;" vertex="1" parent="NeEN_xjupiKiDtHtempg-10">
          <mxGeometry y="120" width="170" height="30" as="geometry" />
        </mxCell>
        <mxCell id="NeEN_xjupiKiDtHtempg-15" value="createdAt : Datetime" style="text;strokeColor=none;fillColor=none;align=left;verticalAlign=middle;spacingLeft=4;spacingRight=4;overflow=hidden;points=[[0,0.5],[1,0.5]];portConstraint=eastwest;rotatable=0;" vertex="1" parent="NeEN_xjupiKiDtHtempg-10">
          <mxGeometry y="150" width="170" height="30" as="geometry" />
        </mxCell>
        <mxCell id="NeEN_xjupiKiDtHtempg-22" value="updatedAt : Datetime" style="text;strokeColor=none;fillColor=none;align=left;verticalAlign=middle;spacingLeft=4;spacingRight=4;overflow=hidden;points=[[0,0.5],[1,0.5]];portConstraint=eastwest;rotatable=0;" vertex="1" parent="NeEN_xjupiKiDtHtempg-10">
          <mxGeometry y="180" width="170" height="30" as="geometry" />
        </mxCell>
        <mxCell id="NeEN_xjupiKiDtHtempg-23" value="story" style="swimlane;fontStyle=0;childLayout=stackLayout;horizontal=1;startSize=30;horizontalStack=0;resizeParent=1;resizeParentMax=0;resizeLast=0;collapsible=1;marginBottom=0;" vertex="1" parent="1">
          <mxGeometry x="-1100" y="920" width="170" height="90" as="geometry" />
        </mxCell>
        <mxCell id="NeEN_xjupiKiDtHtempg-24" value="id : number" style="text;strokeColor=none;fillColor=none;align=left;verticalAlign=middle;spacingLeft=4;spacingRight=4;overflow=hidden;points=[[0,0.5],[1,0.5]];portConstraint=eastwest;rotatable=0;" vertex="1" parent="NeEN_xjupiKiDtHtempg-23">
          <mxGeometry y="30" width="170" height="30" as="geometry" />
        </mxCell>
        <mxCell id="NeEN_xjupiKiDtHtempg-25" value="imgname : string" style="text;strokeColor=none;fillColor=none;align=left;verticalAlign=middle;spacingLeft=4;spacingRight=4;overflow=hidden;points=[[0,0.5],[1,0.5]];portConstraint=eastwest;rotatable=0;" vertex="1" parent="NeEN_xjupiKiDtHtempg-23">
          <mxGeometry y="60" width="170" height="30" as="geometry" />
        </mxCell>
        <mxCell id="aKH_30aaUyIVZ_TFz-0Y-19" value="작성" style="rhombus;whiteSpace=wrap;html=1;fontSize=15;" parent="1" vertex="1">
          <mxGeometry x="-1055" y="350" width="80" height="80" as="geometry" />
        </mxCell>
        <mxCell id="NeEN_xjupiKiDtHtempg-32" value="" style="edgeStyle=orthogonalEdgeStyle;rounded=0;orthogonalLoop=1;jettySize=auto;html=1;endArrow=none;endFill=0;fontSize=15;strokeWidth=3;startArrow=ERone;startFill=0;entryX=0.5;entryY=0;entryDx=0;entryDy=0;exitX=0.5;exitY=1;exitDx=0;exitDy=0;" edge="1" parent="1" source="NeEN_xjupiKiDtHtempg-4" target="aKH_30aaUyIVZ_TFz-0Y-19">
          <mxGeometry relative="1" as="geometry">
            <mxPoint x="-1015" y="160" as="sourcePoint" />
            <mxPoint x="-1060" y="315" as="targetPoint" />
            <Array as="points" />
          </mxGeometry>
        </mxCell>
      </root>
    </mxGraphModel>
  </diagram>
</mxfile>
